<svg width="512" height="512" viewBox="0 0 512 512" fill="none" xmlns="http://www.w3.org/2000/svg">
<circle cx="256" cy="256" r="241" stroke="white" stroke-width="30"/>
<path d="M335.353 214C333.519 224.333 329.269 232.917 322.603 239.75C315.936 246.583 307.936 251.333 298.603 254C306.936 255.833 313.519 259.917 318.353 266.25C323.186 272.583 325.603 280 325.603 288.5C325.603 291.167 325.353 293.75 324.853 296.25C322.353 310.917 315.186 322.583 303.353 331.25C291.519 339.75 276.436 344 258.103 344H176.353L207.353 168.5H286.353C302.186 168.5 314.436 171.75 323.103 178.25C331.769 184.75 336.103 193.75 336.103 205.25C336.103 208.083 335.853 211 335.353 214ZM265.353 239.75C272.519 239.75 278.269 238.167 282.603 235C286.936 231.833 289.603 227.25 290.603 221.25C290.769 220.25 290.853 218.917 290.853 217.25C290.853 212.417 289.269 208.75 286.103 206.25C282.936 203.583 278.269 202.25 272.103 202.25H244.103L237.603 239.75H265.353ZM282.353 290.5C282.686 288.5 282.853 287 282.853 286C282.853 281.167 281.103 277.417 277.603 274.75C274.103 271.917 269.269 270.5 263.103 270.5H232.103L225.103 310H256.603C263.936 310 269.769 308.333 274.103 305C278.436 301.667 281.186 296.833 282.353 290.5Z" fill="white"/>
</svg>
